<?xml version="1.0" encoding="UTF-8"?>
<svg xmlns="http://www.w3.org/2000/svg" width="512" height="178" viewBox="0 0 512 178">
  <defs>
    <radialGradient id="ballGrad" cx="35%" cy="35%" r="70%">
      <stop offset="0%" stop-color="#ffffff"/>
      <stop offset="100%" stop-color="#dfe6ee"/>
    </radialGradient>
    <filter id="ballShadow" x="-30%" y="-30%" width="160%" height="160%">
      <feGaussianBlur in="SourceAlpha" stdDeviation="3" result="blur"/>
      <feOffset in="blur" dx="3" dy="4" result="offsetBlur"/>
      <feColorMatrix in="offsetBlur" type="matrix"
        values="0 0 0 0 0
                0 0 0 0 0
                0 0 0 0 0
                0 0 0 0.25 0" result="shadow"/>
      <feMerge>
        <feMergeNode in="shadow"/>
        <feMergeNode in="SourceGraphic"/>
      </feMerge>
    </filter>
  </defs>

  <path d="M 0.00 122.50 L 0.00 124.00 L 1.50 124.25 L 1.25 127.75 L 0.00 128.00 L 0.00 146.00 L 2.00 146.00 L 2.25 145.75 L 5.25 145.75 L 5.50 146.00 L 7.00 146.00 L 7.25 145.75 L 18.75 145.75 L 19.00 146.00 L 20.50 145.75 L 23.50 145.75 L 23.75 146.00 L 25.25 145.75 L 33.25 145.75 L 33.50 146.00 L 51.50 146.00 L 51.75 146.25 L 51.75 153.25 L 51.00 153.50 L 50.75 154.00 L 50.75 164.50 L 49.75 165.00 L 49.75 175.00 L 49.00 175.25 L 49.25 177.75 L 79.00 177.75 L 79.00 176.75 L 79.75 176.50 L 79.75 174.25 L 80.00 174.00 L 79.75 173.75 L 80.00 162.75 L 80.75 162.50 L 81.00 161.75 L 81.00 151.75 L 80.75 151.00 L 79.25 150.75 L 79.25 146.25 L 79.50 146.00 L 98.75 146.00 L 99.00 145.75 L 97.50 145.75 L 97.25 146.00 L 90.00 145.75 L 89.75 145.50 L 89.75 143.50 L 90.00 143.25 L 103.25 143.25 L 103.50 143.50 L 103.50 145.50 L 107.50 145.50 L 107.75 145.75 L 118.00 145.50 L 118.25 145.75 L 131.00 146.00 L 131.00 145.25 L 132.00 145.00 L 132.25 144.00 L 133.00 143.25 L 134.00 143.00 L 134.00 141.00 L 135.00 140.00 L 135.00 126.75 L 135.75 126.50 L 136.00 124.25 L 135.00 123.75 L 135.00 122.75 L 133.50 122.75 L 133.25 122.50 L 133.25 121.00 L 133.00 120.75 L 113.50 120.75 L 113.25 121.00 L 107.00 121.00 L 106.75 120.75 L 103.75 120.75 L 103.50 121.00 L 95.00 121.00 L 94.75 120.75 L 12.25 120.75 L 12.00 121.00 L 9.50 121.00 L 9.25 120.00 L 2.25 119.75 L 2.25 120.75 L 1.50 121.00 L 1.50 122.25 Z M 151.75 55.75 L 151.75 57.50 L 149.75 57.75 L 149.75 58.75 L 149.00 59.00 L 148.75 72.75 L 147.75 73.00 L 147.75 76.00 L 148.75 76.25 L 149.00 77.00 L 150.50 77.25 L 150.50 79.00 L 154.50 78.50 L 154.75 77.25 L 162.50 77.25 L 163.00 78.75 L 165.50 78.75 L 166.00 80.00 L 192.50 80.00 L 192.75 90.00 L 191.75 90.75 L 191.50 94.75 L 148.25 94.75 L 148.00 97.00 L 145.75 97.25 L 145.75 100.00 L 145.00 100.25 L 144.75 111.25 L 145.00 112.00 L 146.50 112.25 L 146.50 117.25 L 144.25 117.50 L 143.75 118.00 L 143.75 126.00 L 142.75 126.75 L 142.75 136.00 L 144.50 136.25 L 144.50 138.25 L 142.25 138.50 L 142.00 136.75 L 141.75 144.50 L 140.75 145.00 L 140.75 153.75 L 140.00 154.00 L 140.00 154.75 L 140.75 155.00 L 140.75 156.00 L 142.50 156.00 L 142.75 158.00 L 196.25 158.00 L 196.75 157.00 L 203.75 157.00 L 204.50 156.50 L 204.75 154.25 L 207.00 154.50 L 207.00 156.75 L 207.25 154.25 L 210.25 154.25 L 210.75 156.00 L 214.50 156.00 L 215.00 155.00 L 217.75 155.00 L 218.75 154.00 L 222.50 154.00 L 223.00 153.00 L 223.75 153.00 L 224.00 151.75 L 225.00 151.75 L 225.25 151.00 L 226.00 151.00 L 226.00 143.00 L 227.00 142.50 L 226.75 133.00 L 226.50 134.00 L 224.50 134.00 L 223.75 133.25 L 223.50 130.75 L 222.75 131.75 L 217.00 131.75 L 216.25 132.75 L 210.00 132.75 L 209.50 135.50 L 207.50 135.50 L 207.00 133.75 L 199.00 133.75 L 198.50 134.75 L 171.25 134.75 L 170.50 128.25 L 170.75 127.00 L 172.00 126.75 L 172.00 121.00 L 173.00 120.75 L 173.25 117.00 L 201.25 116.50 L 201.50 114.25 L 209.75 114.25 L 209.75 116.75 L 206.00 117.00 L 214.75 117.00 L 215.50 116.00 L 216.50 116.00 L 216.75 114.25 L 219.00 113.75 L 219.00 107.25 L 217.25 107.00 L 217.25 102.75 L 219.50 102.50 L 219.50 101.75 L 220.00 101.50 L 220.00 96.75 L 220.75 96.50 L 221.00 89.75 L 218.50 89.75 L 218.50 86.00 L 221.00 86.00 L 221.00 84.50 L 219.25 84.00 L 219.25 80.50 L 221.50 80.25 L 221.50 78.50 L 222.00 77.75 L 222.00 70.75 L 222.75 70.50 L 223.00 69.75 L 223.00 59.75 L 222.25 60.75 L 220.25 60.75 L 220.00 57.75 L 207.00 57.75 L 206.75 57.00 L 204.75 56.75 L 183.75 56.75 L 183.00 57.25 L 182.75 58.50 L 180.75 58.50 L 180.50 56.00 L 174.00 55.75 L 173.75 58.50 L 170.00 58.50 L 169.75 56.25 L 165.75 55.75 Z M 262.50 52.75 L 240.75 52.75 L 241.00 53.25 L 241.00 55.25 L 239.50 56.00 L 236.75 56.00 L 236.75 68.75 L 236.50 69.00 L 235.75 69.00 L 235.75 80.75 L 235.50 81.00 L 234.75 81.00 L 234.75 92.00 L 234.00 92.25 L 233.75 92.75 L 233.75 100.75 L 234.00 101.00 L 234.00 103.00 L 233.75 103.25 L 233.00 103.25 L 232.75 103.75 L 232.75 114.75 L 232.50 115.00 L 231.75 115.00 L 231.75 127.00 L 231.00 127.25 L 230.75 128.00 L 230.75 137.75 L 230.25 138.00 L 229.75 138.75 L 229.75 146.50 L 230.00 146.75 L 230.00 150.00 L 229.25 150.25 L 229.25 151.50 L 228.75 151.75 L 228.75 163.75 L 228.50 164.00 L 227.75 164.00 L 227.75 165.75 L 230.25 165.75 L 230.50 166.00 L 230.50 168.25 L 230.25 168.50 L 228.00 168.50 L 227.75 168.25 L 227.75 174.00 L 229.00 174.00 L 229.25 174.25 L 229.25 174.75 L 229.75 175.00 L 229.75 176.00 L 230.50 176.00 L 230.75 176.25 L 230.75 177.75 L 245.25 177.75 L 245.25 176.75 L 245.50 176.50 L 247.50 176.50 L 247.75 176.75 L 247.75 177.75 L 251.00 177.75 L 251.00 176.25 L 251.25 176.00 L 252.25 176.00 L 252.25 174.75 L 252.50 174.50 L 253.75 174.50 L 254.00 174.00 L 255.00 174.00 L 255.00 168.75 L 255.75 168.50 L 255.75 165.00 L 256.00 164.75 L 256.00 155.75 L 256.75 155.50 L 256.50 150.50 L 257.00 149.75 L 257.00 142.75 L 257.75 142.50 L 258.00 141.75 L 258.00 132.25 L 259.00 131.75 L 259.00 130.75 L 258.50 130.50 L 258.50 128.25 L 259.00 126.75 L 259.00 120.75 L 259.75 120.50 L 260.00 119.75 L 260.00 112.00 L 258.50 112.00 L 258.25 111.75 L 258.25 106.75 L 258.50 106.50 L 260.50 106.50 L 261.00 105.00 L 261.00 98.75 L 261.75 98.50 L 262.00 97.75 L 262.00 96.00 L 262.00 96.75 L 261.75 97.00 L 259.75 97.00 L 259.50 96.75 L 259.50 94.50 L 259.75 94.25 L 261.50 94.25 L 261.50 92.75 L 262.00 92.50 L 262.00 88.00 L 260.50 88.00 L 260.25 87.75 L 260.25 83.00 L 260.50 82.75 L 262.75 82.75 L 263.00 82.50 L 263.00 76.75 L 263.75 76.50 L 264.00 75.75 L 264.00 66.00 L 262.50 66.00 L 262.25 65.75 L 262.25 62.25 L 262.75 61.50 L 264.75 61.50 L 265.00 61.00 L 265.00 55.25 L 264.75 55.00 L 263.00 55.00 L 262.75 54.75 L 262.75 53.00 Z M 14.75 72.75 L 14.75 76.75 L 14.00 77.00 L 13.75 81.00 L 14.00 80.75 L 16.25 80.75 L 16.75 81.50 L 16.75 83.50 L 16.25 84.25 L 14.00 84.25 L 13.75 84.75 L 13.75 85.50 L 14.75 86.00 L 14.75 89.75 L 15.75 90.25 L 15.75 92.00 L 16.75 92.25 L 16.75 93.75 L 17.75 94.00 L 17.75 95.50 L 18.75 96.00 L 18.75 97.00 L 19.75 97.25 L 19.75 98.00 L 21.75 99.75 L 22.00 100.50 L 23.75 102.25 L 24.50 102.50 L 24.50 103.00 L 25.50 104.00 L 26.25 104.25 L 26.75 105.00 L 27.50 105.00 L 27.75 106.00 L 28.75 106.00 L 29.25 106.50 L 29.25 107.00 L 30.50 107.25 L 30.75 108.00 L 32.75 108.25 L 33.00 109.00 L 33.50 109.00 L 34.00 110.00 L 36.00 110.00 L 36.50 111.00 L 37.75 111.00 L 38.75 112.00 L 40.25 112.00 L 40.75 113.00 L 44.00 113.00 L 44.25 114.00 L 48.25 114.00 L 48.75 115.00 L 52.75 115.00 L 53.00 115.75 L 53.50 116.00 L 58.50 116.00 L 58.75 116.75 L 59.25 117.00 L 68.25 117.00 L 68.75 116.50 L 70.75 116.50 L 71.00 116.75 L 71.00 117.75 L 72.25 117.75 L 72.50 117.00 L 85.00 117.00 L 85.75 116.75 L 86.00 116.00 L 91.00 116.00 L 91.50 115.75 L 91.75 115.00 L 95.50 115.00 L 96.00 114.75 L 96.25 114.00 L 100.00 114.00 L 100.50 113.00 L 102.75 113.00 L 103.00 112.00 L 105.50 112.00 L 105.75 111.00 L 107.25 111.00 L 107.50 110.00 L 109.00 110.00 L 109.25 109.00 L 111.00 109.00 L 111.50 108.00 L 113.00 108.00 L 113.50 107.25 L 114.25 107.00 L 114.50 106.25 L 116.00 106.00 L 116.25 105.25 L 116.75 105.25 L 117.50 104.25 L 118.25 104.00 L 118.50 103.00 L 119.25 103.00 L 119.75 102.00 L 120.50 102.00 L 120.75 101.00 L 121.50 101.00 L 121.75 100.25 L 122.75 100.25 L 122.75 99.75 L 123.75 99.00 L 124.00 98.00 L 125.00 97.75 L 125.00 96.50 L 126.00 96.00 L 126.00 95.25 L 127.00 95.00 L 127.00 93.75 L 128.00 93.50 L 128.00 91.50 L 129.00 91.00 L 129.25 90.00 L 130.00 90.00 L 130.00 87.75 L 131.00 87.25 L 131.00 84.00 L 131.75 83.50 L 132.00 82.75 L 132.00 71.00 L 131.00 70.75 L 131.00 67.25 L 130.00 67.00 L 130.00 65.75 L 129.00 64.75 L 129.00 63.25 L 128.00 63.00 L 128.00 61.75 L 127.50 61.75 L 127.00 60.75 L 125.75 59.50 L 125.25 59.50 L 124.75 58.50 L 124.00 58.25 L 123.75 56.75 L 123.25 56.75 L 122.50 56.00 L 122.50 55.50 L 121.75 55.50 L 121.50 54.75 L 120.75 54.75 L 120.50 53.75 L 119.50 53.75 L 119.25 52.75 L 118.25 52.50 L 118.25 51.75 L 117.00 51.50 L 116.75 50.75 L 115.50 50.50 L 115.25 49.75 L 113.75 49.50 L 113.25 48.75 L 112.50 48.75 L 112.00 47.75 L 110.50 47.75 L 110.25 46.75 L 108.50 46.75 L 108.25 45.75 L 105.75 45.75 L 105.50 44.75 L 103.25 44.75 L 102.75 43.75 L 100.50 43.75 L 100.00 42.75 L 97.25 42.75 L 96.75 41.75 L 92.00 41.75 L 91.50 40.75 L 84.75 40.75 L 84.25 39.75 L 67.50 39.75 L 67.00 40.75 L 60.50 40.75 L 60.00 41.75 L 55.00 41.75 L 54.50 42.75 L 52.00 42.75 L 51.50 43.75 L 48.25 43.75 L 47.75 44.75 L 46.25 44.75 L 46.00 45.75 L 43.50 45.75 L 43.25 46.75 L 41.25 46.75 L 40.75 47.75 L 39.00 47.75 L 38.75 48.75 L 37.50 48.75 L 37.00 49.50 L 36.00 49.75 L 35.50 50.75 L 33.50 50.75 L 33.50 51.25 L 32.75 51.50 L 32.25 52.50 L 30.75 52.75 L 30.75 53.50 L 30.50 53.75 L 29.50 53.75 L 29.50 54.25 L 28.75 54.50 L 27.50 55.75 L 27.25 56.50 L 26.75 56.50 L 25.50 57.75 L 24.75 57.75 L 24.50 59.00 L 24.00 59.50 L 23.00 59.75 L 23.00 60.50 L 21.75 62.00 L 21.75 62.50 L 20.75 62.75 L 20.50 63.50 L 19.75 63.75 L 19.75 65.25 L 19.00 65.50 L 17.75 66.75 L 17.75 68.25 L 16.75 68.75 L 16.75 70.50 L 15.75 70.75 L 15.75 72.00 L 15.00 72.25 Z M 44.25 77.50 L 44.50 77.25 L 47.00 77.25 L 47.00 75.00 L 47.25 74.75 L 47.50 74.75 L 47.50 74.25 L 47.75 74.00 L 48.00 74.00 L 48.00 73.25 L 48.25 73.00 L 48.50 73.00 L 48.50 72.50 L 49.25 71.75 L 49.25 71.25 L 49.50 71.00 L 49.75 71.00 L 50.25 70.25 L 50.50 70.25 L 50.50 69.75 L 50.75 69.50 L 51.25 69.50 L 51.75 69.00 L 52.00 69.00 L 52.50 68.25 L 53.00 68.25 L 53.25 68.00 L 53.25 67.25 L 53.50 67.00 L 55.25 67.00 L 55.25 66.50 L 56.00 66.00 L 57.75 66.00 L 58.00 65.75 L 58.00 65.25 L 58.25 65.00 L 61.00 65.00 L 61.25 64.75 L 61.25 64.25 L 61.50 64.00 L 65.75 64.00 L 65.75 63.25 L 66.00 63.00 L 72.25 63.00 L 72.25 62.75 L 72.50 62.50 L 76.75 62.50 L 77.00 62.75 L 79.00 62.75 L 79.25 63.00 L 83.75 63.00 L 84.00 63.25 L 84.00 63.75 L 85.50 63.75 L 85.75 64.00 L 87.75 64.00 L 88.00 64.25 L 88.00 64.75 L 88.25 65.00 L 91.25 65.00 L 91.50 65.25 L 91.50 65.75 L 91.75 66.00 L 92.50 66.00 L 92.75 66.25 L 93.25 66.25 L 93.75 67.00 L 95.50 67.00 L 95.75 67.25 L 95.75 68.00 L 96.00 68.25 L 96.50 68.25 L 97.00 69.00 L 97.50 69.00 L 98.75 70.25 L 99.00 70.25 L 99.50 70.75 L 99.50 71.00 L 99.75 71.25 L 100.00 71.25 L 100.25 71.50 L 100.25 72.00 L 100.50 72.00 L 100.75 72.25 L 100.75 73.00 L 101.00 73.25 L 101.50 73.25 L 101.75 73.50 L 101.75 83.25 L 101.50 83.50 L 100.75 83.50 L 100.75 85.50 L 100.50 85.75 L 99.75 85.75 L 99.75 86.75 L 99.50 87.00 L 99.50 87.25 L 99.25 87.50 L 99.00 87.50 L 98.50 88.00 L 98.50 88.25 L 98.25 88.50 L 97.75 88.50 L 97.50 88.75 L 97.50 89.00 L 97.00 89.50 L 96.75 89.50 L 96.50 89.75 L 96.50 90.25 L 96.25 90.50 L 95.00 90.50 L 94.75 90.75 L 94.25 90.75 L 94.25 91.50 L 94.00 91.75 L 92.50 91.75 L 92.50 92.25 L 91.75 92.75 L 90.00 92.75 L 89.75 93.00 L 89.75 93.50 L 89.50 93.75 L 85.75 93.75 L 85.50 94.00 L 85.50 94.50 L 85.25 94.75 L 79.50 94.75 L 79.25 95.00 L 79.25 95.50 L 79.00 95.75 L 68.00 95.75 L 67.75 95.50 L 67.75 95.00 L 67.50 94.75 L 62.00 94.75 L 61.75 94.50 L 61.75 93.75 L 58.00 93.75 L 57.75 93.50 L 57.75 92.75 L 56.00 92.75 L 55.75 92.50 L 55.75 92.00 L 55.50 91.75 L 54.25 91.75 L 54.00 91.50 L 53.75 91.50 L 53.50 91.25 L 53.50 91.00 L 52.75 91.00 L 52.50 90.75 L 52.00 90.75 L 51.75 90.50 L 51.50 90.50 L 51.25 90.25 L 51.25 89.75 L 51.00 89.75 L 49.75 88.50 L 49.50 88.50 L 49.25 88.25 L 49.25 88.00 L 49.00 87.75 L 49.00 87.25 L 48.25 87.25 L 48.00 87.00 L 48.00 85.50 L 47.75 85.25 L 47.25 85.25 L 47.00 85.00 L 47.00 83.50 L 46.75 83.25 L 46.75 81.75 L 46.75 82.25 L 46.50 82.50 L 44.50 82.50 L 44.25 82.25 Z" fill="#e40000" fill-rule="evenodd"/>
  <path d="M 391.75 169.75 L 392.75 169.75 L 393.00 170.75 L 394.00 170.75 L 394.25 171.75 L 395.00 172.00 L 395.25 172.75 L 395.75 173.00 L 412.00 173.00 L 412.25 173.75 L 413.25 174.00 L 414.75 174.00 L 414.25 173.25 L 414.25 171.25 L 414.75 170.75 L 417.00 170.75 L 417.25 171.00 L 426.25 171.00 L 426.50 171.25 L 426.50 173.25 L 426.25 173.50 L 424.50 173.50 L 424.75 174.00 L 440.50 174.00 L 440.75 174.75 L 444.75 174.75 L 445.00 175.00 L 450.50 175.00 L 451.00 174.50 L 450.50 174.25 L 450.50 172.25 L 451.00 171.75 L 459.50 172.00 L 459.75 172.25 L 459.75 174.25 L 459.50 174.50 L 455.25 174.50 L 455.50 175.00 L 494.25 175.00 L 495.25 174.75 L 495.50 174.00 L 500.50 174.00 L 501.00 173.00 L 504.75 173.00 L 505.25 172.75 L 505.50 172.00 L 507.25 172.00 L 507.75 171.00 L 509.00 171.00 L 509.50 170.00 L 510.25 170.00 L 510.50 169.50 L 511.75 169.50 L 511.75 164.25 L 510.25 164.25 L 509.75 163.75 L 510.00 160.00 L 510.25 159.75 L 511.75 159.75 L 511.75 151.75 L 510.50 151.75 L 510.25 151.50 L 510.25 149.50 L 510.50 149.25 L 511.75 149.25 L 511.75 148.75 L 507.25 148.75 L 506.75 149.00 L 506.50 149.75 L 499.00 149.75 L 498.75 150.00 L 497.00 150.00 L 496.75 150.75 L 488.75 150.75 L 488.75 151.25 L 491.50 151.25 L 491.75 151.50 L 491.75 153.50 L 491.50 153.75 L 463.25 153.75 L 463.00 153.50 L 463.00 151.50 L 463.25 151.25 L 466.00 151.25 L 466.00 150.75 L 449.25 150.75 L 449.00 150.00 L 445.75 150.00 L 445.50 149.75 L 425.25 149.75 L 425.00 149.00 L 421.50 148.75 L 421.75 151.50 L 421.00 152.00 L 419.00 152.00 L 418.75 151.75 L 410.50 151.75 L 410.25 151.50 L 410.25 149.50 L 410.50 149.25 L 418.50 149.25 L 414.00 149.25 L 413.75 148.75 L 401.25 148.75 L 401.00 148.00 L 398.00 148.00 L 397.75 148.75 L 396.75 148.75 L 396.75 150.50 L 396.50 150.75 L 394.75 150.75 L 394.75 151.75 L 394.00 152.00 L 394.00 153.75 L 393.75 154.00 L 393.75 159.75 L 392.75 160.00 L 392.75 160.75 L 393.25 161.00 L 393.25 163.75 L 392.75 164.00 L 392.75 167.75 L 392.00 168.00 Z M 408.00 62.00 L 408.00 63.00 L 407.00 63.25 L 406.75 63.75 L 406.75 67.75 L 407.25 68.00 L 407.25 68.75 L 407.25 66.25 L 407.50 66.00 L 409.50 66.00 L 409.75 66.25 L 409.75 72.75 L 409.50 73.00 L 407.00 73.00 L 406.75 72.75 L 406.75 71.00 L 406.75 74.75 L 407.00 75.75 L 407.75 76.00 L 407.75 78.75 L 408.50 78.75 L 408.75 80.00 L 409.75 80.50 L 409.75 81.50 L 410.25 82.00 L 410.75 82.00 L 412.00 83.25 L 412.25 84.00 L 413.50 84.00 L 414.00 85.00 L 414.25 85.00 L 414.25 82.25 L 414.50 82.00 L 417.50 82.00 L 417.75 82.25 L 417.75 84.25 L 416.75 84.50 L 417.00 85.00 L 434.75 85.00 L 435.00 85.75 L 436.50 86.00 L 445.75 86.00 L 445.75 85.50 L 445.00 85.50 L 444.75 86.00 L 442.75 86.00 L 442.00 85.25 L 442.00 83.25 L 442.75 82.75 L 444.75 82.75 L 445.00 83.00 L 449.25 82.75 L 449.50 83.00 L 453.25 83.00 L 453.50 83.25 L 453.50 85.25 L 453.25 85.50 L 449.50 85.50 L 449.25 86.00 L 461.00 86.00 L 461.25 86.75 L 465.50 87.00 L 465.75 87.25 L 465.75 97.75 L 464.75 98.00 L 464.75 105.75 L 464.00 106.00 L 463.75 107.75 L 464.25 108.00 L 464.25 110.00 L 463.75 110.25 L 463.75 114.75 L 463.00 115.00 L 462.75 116.00 L 462.75 121.75 L 462.00 122.00 L 461.75 123.00 L 461.75 129.75 L 461.00 130.00 L 460.75 131.00 L 460.75 132.75 L 461.00 131.75 L 463.50 131.75 L 463.75 132.00 L 463.75 135.50 L 463.50 135.75 L 461.50 135.75 L 461.25 135.00 L 461.25 135.75 L 460.75 136.00 L 460.75 139.75 L 460.00 140.00 L 460.00 140.75 L 460.75 141.00 L 461.00 142.50 L 462.00 142.75 L 462.00 143.75 L 463.00 144.00 L 463.25 144.75 L 464.00 145.00 L 463.75 144.75 L 463.75 142.25 L 465.00 141.75 L 467.25 141.75 L 467.50 142.00 L 486.75 142.00 L 487.00 142.25 L 487.00 144.00 L 487.75 143.75 L 487.75 143.00 L 489.00 142.50 L 489.00 141.00 L 489.75 140.75 L 490.00 139.75 L 490.00 130.00 L 490.75 129.75 L 491.00 128.75 L 491.00 119.00 L 491.75 118.75 L 491.75 118.00 L 488.75 117.50 L 489.00 113.00 L 489.25 112.75 L 491.25 112.75 L 491.50 113.00 L 491.50 115.00 L 492.00 115.00 L 492.00 110.00 L 492.75 109.75 L 493.00 108.75 L 493.00 106.00 L 492.50 105.75 L 492.50 103.25 L 493.00 103.00 L 493.00 98.00 L 493.75 97.75 L 493.75 96.00 L 494.00 95.75 L 494.00 94.00 L 493.50 94.00 L 493.25 94.75 L 491.25 94.75 L 490.75 94.00 L 491.00 88.00 L 491.25 87.75 L 493.25 87.75 L 493.50 88.00 L 493.50 90.00 L 494.00 90.00 L 494.00 86.00 L 494.75 85.75 L 495.00 84.75 L 495.00 75.00 L 495.75 74.75 L 495.50 73.25 L 493.00 73.25 L 492.75 71.75 L 491.50 71.50 L 490.50 72.50 L 488.25 73.75 L 481.50 76.25 L 475.75 77.25 L 465.75 77.25 L 457.25 75.00 L 455.75 74.00 L 452.25 72.50 L 446.75 68.75 L 443.00 64.75 L 440.50 64.50 L 440.25 64.25 L 440.25 62.25 L 437.25 61.75 L 434.50 61.75 L 434.25 61.00 L 432.25 61.00 L 432.00 60.75 L 409.50 60.75 L 409.00 61.75 Z M 284.00 58.75 L 283.75 59.75 L 283.00 60.00 L 282.75 60.75 L 281.75 60.75 L 281.75 62.75 L 281.00 63.00 L 280.75 64.00 L 280.75 73.75 L 280.00 74.00 L 279.75 77.75 L 280.00 79.00 L 280.75 79.25 L 281.00 80.50 L 282.50 81.00 L 282.75 82.00 L 310.00 82.00 L 310.25 82.75 L 312.00 83.00 L 323.50 83.00 L 323.75 91.75 L 322.75 92.00 L 322.75 93.75 L 323.25 94.00 L 323.25 96.75 L 322.50 97.75 L 280.25 97.75 L 280.00 98.75 L 279.00 99.00 L 279.00 99.75 L 277.75 100.25 L 277.75 107.50 L 276.75 108.00 L 276.75 115.75 L 276.00 116.00 L 275.75 117.00 L 275.75 124.75 L 275.00 125.00 L 274.75 126.00 L 274.75 133.75 L 274.00 134.00 L 273.75 135.00 L 273.75 145.75 L 273.00 146.00 L 272.75 147.00 L 272.75 157.00 L 273.75 157.00 L 274.00 157.75 L 274.75 158.00 L 275.00 159.00 L 333.00 159.00 L 333.75 158.75 L 334.00 158.00 L 341.75 158.00 L 342.50 157.00 L 348.00 157.00 L 348.75 156.00 L 351.25 156.00 L 352.00 155.00 L 353.00 155.00 L 353.00 154.00 L 354.00 153.75 L 354.25 153.00 L 355.00 153.00 L 355.00 150.00 L 355.75 149.75 L 356.00 148.75 L 356.00 140.00 L 356.75 139.75 L 357.00 137.75 L 356.75 136.00 L 354.50 135.75 L 354.00 133.75 L 349.25 133.75 L 348.50 134.75 L 342.75 134.75 L 342.00 135.75 L 334.25 135.75 L 333.50 136.00 L 333.25 136.75 L 302.25 136.75 L 302.00 129.00 L 302.75 128.75 L 303.00 127.75 L 303.00 121.00 L 303.75 120.75 L 304.25 119.00 L 346.50 119.00 L 346.75 118.00 L 347.75 117.75 L 347.75 117.00 L 349.00 116.50 L 349.00 113.00 L 349.75 112.75 L 350.00 111.75 L 350.00 104.00 L 350.75 103.75 L 351.00 102.75 L 351.00 90.00 L 352.00 89.75 L 352.00 83.00 L 352.75 82.75 L 353.00 80.75 L 353.00 70.00 L 353.75 69.75 L 354.00 68.75 L 353.75 62.75 L 353.25 62.75 L 353.00 62.00 L 352.00 62.00 L 351.75 61.00 L 350.50 60.75 L 350.25 60.00 L 333.75 59.75 L 333.50 60.25 L 329.75 60.25 L 329.50 59.75 L 307.00 59.75 L 306.75 59.00 L 302.25 58.75 Z M 369.25 55.75 L 369.00 56.75 L 368.00 56.75 L 367.75 57.75 L 366.75 58.00 L 366.75 64.75 L 366.00 65.00 L 365.75 66.00 L 365.75 78.75 L 365.00 79.00 L 365.00 80.75 L 364.75 81.00 L 364.75 89.75 L 364.00 90.00 L 363.75 91.00 L 363.75 101.75 L 363.00 102.00 L 363.00 103.75 L 362.75 104.00 L 362.75 113.75 L 361.75 114.00 L 361.75 123.75 L 361.00 124.00 L 361.00 125.75 L 360.75 126.00 L 360.75 135.75 L 359.75 136.00 L 359.75 137.75 L 362.25 137.75 L 362.75 138.25 L 362.75 140.50 L 362.25 141.00 L 360.25 141.00 L 360.25 141.75 L 359.75 142.00 L 359.75 147.75 L 359.00 148.00 L 358.75 149.00 L 358.75 157.75 L 358.00 158.00 L 357.75 159.00 L 357.75 174.75 L 356.75 175.00 L 356.75 177.75 L 385.00 177.75 L 385.00 167.00 L 386.00 166.75 L 386.00 156.00 L 386.75 155.75 L 387.00 154.75 L 387.00 142.00 L 387.75 141.75 L 387.75 140.00 L 388.00 139.75 L 388.00 139.00 L 387.50 138.75 L 387.50 137.00 L 387.50 138.75 L 387.25 139.00 L 385.25 139.00 L 385.00 138.75 L 385.00 133.50 L 385.25 133.25 L 387.25 133.25 L 387.50 134.25 L 388.00 134.50 L 388.00 135.75 L 388.00 128.00 L 388.75 127.75 L 389.00 125.00 L 387.75 125.00 L 387.50 124.00 L 386.25 124.00 L 386.00 123.75 L 386.00 121.00 L 386.25 120.75 L 388.25 120.75 L 388.50 121.00 L 388.50 122.00 L 389.00 122.00 L 389.00 118.00 L 389.75 117.75 L 390.00 116.75 L 390.00 112.00 L 389.50 111.75 L 389.50 109.75 L 390.00 109.50 L 390.00 105.00 L 391.00 104.75 L 391.00 104.25 L 390.00 104.25 L 389.75 103.75 L 388.00 103.75 L 387.75 103.50 L 387.75 100.75 L 388.00 100.50 L 388.00 97.25 L 388.25 97.00 L 390.25 97.00 L 390.50 97.25 L 390.50 100.75 L 391.00 100.75 L 391.00 96.00 L 391.75 95.75 L 392.00 94.75 L 392.00 85.00 L 392.75 84.75 L 392.75 81.50 L 393.00 81.25 L 391.75 81.25 L 390.00 80.75 L 390.00 74.00 L 390.25 73.75 L 392.25 73.75 L 392.50 74.00 L 392.50 77.00 L 393.00 77.00 L 393.00 72.00 L 393.75 71.75 L 394.00 70.75 L 394.00 59.25 L 393.75 59.00 L 393.75 57.75 L 393.50 57.75 L 393.50 58.75 L 393.25 59.00 L 391.00 59.00 L 390.50 58.50 L 390.50 56.50 L 390.75 56.25 L 392.00 56.25 L 392.00 56.00 L 391.00 55.75 Z" fill="#111111" fill-rule="evenodd"/>
  <circle cx="470.94" cy="38.21" r="42.31" fill="url(#ballGrad)" filter="url(#ballShadow)"/>
</svg>
